<?xml version="1.0" standalone="no"?><svg xmlns="http://www.w3.org/2000/svg" viewBox="0 0 1440 720"><path fill="#9f009f" fill-opacity="1" d="M0,64L20,90.7C40,117,80,171,120,192C160,213,200,203,240,181.3C280,160,320,128,360,96C400,64,440,32,480,64C520,96,560,192,600,202.7C640,213,680,139,720,96C760,53,800,43,840,85.3C880,128,920,224,960,224C1000,224,1040,128,1080,112C1120,96,1160,160,1200,170.7C1240,181,1280,139,1320,133.3C1360,128,1400,160,1420,176L1440,192L1440,0L1420,0C1400,0,1360,0,1320,0C1280,0,1240,0,1200,0C1160,0,1120,0,1080,0C1040,0,1000,0,960,0C920,0,880,0,840,0C800,0,760,0,720,0C680,0,640,0,600,0C560,0,520,0,480,0C440,0,400,0,360,0C320,0,280,0,240,0C200,0,160,0,120,0C80,0,40,0,20,0L0,0Z"></path></svg>
